HIERARCHY
ROOT joint_0
{
	OFFSET 0.000000 0.000000 0.000000
	CHANNELS 6 Xposition Yposition Zposition Zrotation Yrotation Xrotation 
	JOINT joint_1
	{
		OFFSET 0.000000 0.000000 0.000000
		CHANNELS 3 Zrotation Yrotation Xrotation
		JOINT joint_2
		{
			OFFSET 3.811170 -8.520760 0.839290
			CHANNELS 3 Zrotation Yrotation Xrotation
			JOINT joint_3
			{
				OFFSET 2.562200 -7.039590 0.000000
				CHANNELS 3 Zrotation Yrotation Xrotation
				JOINT joint_4
				{
					OFFSET 0.157640 -0.433110 2.322550
					CHANNELS 3 Zrotation Yrotation Xrotation
					End Site
					{
						OFFSET 0.000000 0.000000 0.000000
					}
				}
			}
		}
	}
	JOINT joint_5
	{
		OFFSET 0.000000 0.000000 0.000000
		CHANNELS 3 Zrotation Yrotation Xrotation
		JOINT joint_6
		{
			OFFSET -3.848050 -8.780180 0.839290
			CHANNELS 3 Zrotation Yrotation Xrotation
			JOINT joint_7
			{
				OFFSET -2.568260 -7.056230 0.000000
				CHANNELS 3 Zrotation Yrotation Xrotation
				JOINT joint_8
				{
					OFFSET -0.164730 -0.452590 2.363150
					CHANNELS 3 Zrotation Yrotation Xrotation
					End Site
					{
						OFFSET 0.000000 0.000000 0.000000
					}
				}
			}
		}
	}
	JOINT joint_9
	{
		OFFSET 0.028270 2.035590 -0.193380
		CHANNELS 3 Zrotation Yrotation Xrotation
		JOINT joint_10
		{
			OFFSET 0.056720 2.048850 -0.042750
			CHANNELS 3 Zrotation Yrotation Xrotation
			JOINT joint_11
			{
				OFFSET -0.054170 1.746240 0.172020
				CHANNELS 3 Zrotation Yrotation Xrotation
				JOINT joint_12
				{
					OFFSET 0.104070 1.761360 -0.123970
					CHANNELS 3 Zrotation Yrotation Xrotation
					End Site
					{
						OFFSET 0.000000 0.000000 0.000000
					}
				}
			}
			JOINT joint_13
			{
				OFFSET 3.362410 1.200890 -0.311210
				CHANNELS 3 Zrotation Yrotation Xrotation
				JOINT joint_14
				{
					OFFSET 4.983000 -0.000000 -0.000000
					CHANNELS 3 Zrotation Yrotation Xrotation
					JOINT joint_15
					{
						OFFSET 3.483560 -0.000000 -0.000000
						CHANNELS 3 Zrotation Yrotation Xrotation
						JOINT joint_16
						{
							OFFSET 0.715260 -0.000000 -0.000000
							CHANNELS 3 Zrotation Yrotation Xrotation
							End Site
							{
								OFFSET 0.000000 0.000000 0.000000
							}
						}
					}
				}
			}
			JOINT joint_17
			{
				OFFSET -3.136600 1.374050 -0.404650
				CHANNELS 3 Zrotation Yrotation Xrotation
				JOINT joint_18
				{
					OFFSET -5.241900 -0.000000 -0.000000
					CHANNELS 3 Zrotation Yrotation Xrotation
					JOINT joint_19
					{
						OFFSET -3.444170 -0.000000 -0.000000
						CHANNELS 3 Zrotation Yrotation Xrotation
						JOINT joint_20
						{
							OFFSET -0.622530 -0.000000 -0.000000
							CHANNELS 3 Zrotation Yrotation Xrotation
							End Site
							{
								OFFSET 0.000000 0.000000 0.000000
							}
						}
					}
				}
			}
		}
	}
}
MOTION
Frames: 9
Frame Time: 0.031667
4.847296 15.567984 -2.364512 -5.013435 -25.555210 3.808602 -7.727294 14.356620 -22.749886 -4.559067 10.837276 24.563717 1.108532 4.908809 -9.198951 0.094339 -1.673783 -4.433404 5.767070 -4.305183 -1.635580 6.030499 -10.752835 22.082559 -1.217434 -3.708845 -9.164453 -0.159226 0.438538 -1.016751 0.769942 0.846583 -0.401470 -0.452910 -0.265864 -5.409309 1.432976 -0.074486 1.218156 -0.210569 -0.254886 3.944486 -49.762885 -26.578004 15.567181 44.063411 -52.966718 -19.192423 0.661052 1.144792 0.386593 -6.946793 -0.207797 0.219801 84.192237 25.045053 41.817654 -60.436977 59.042034 -29.223047 0.061522 -0.975901 -0.495310 7.311400 -0.247844 0.241222 
4.817107 15.564921 -2.375835 -4.960369 -25.233309 3.832239 -6.241980 18.406748 -23.150966 -5.906754 10.871697 23.743049 1.572846 4.067644 -10.354149 -0.066253 -1.027171 -2.741422 2.702031 -7.167191 2.165138 7.833987 -10.131467 19.327207 -1.527957 -2.859422 -8.999757 0.024371 0.646948 -1.438296 0.337764 1.065868 -0.672326 -0.246611 -0.017439 -5.732210 0.819197 0.522343 -0.411184 -0.640783 -0.072155 3.427595 -46.178177 -27.603454 11.707555 44.920303 -54.509684 -19.432581 0.490023 1.167505 -0.281283 -6.978231 -0.172483 0.180069 88.004005 26.233469 42.037588 -60.843814 60.612430 -28.390602 0.220774 -1.042174 -0.802059 7.332921 -0.180320 0.181417 
4.786918 15.561857 -2.387158 -4.907456 -24.911741 3.856510 -5.871629 20.853838 -24.247447 -7.156663 11.623418 23.365872 2.130681 3.328265 -11.248903 -0.089980 -0.574945 -1.388990 0.292877 -8.681355 4.342333 9.388893 -10.058480 17.799795 -1.976828 -2.583589 -8.882158 0.164333 0.848439 -1.917163 0.016702 1.065554 -0.764477 -0.125530 0.018493 -6.418421 0.457290 0.853837 -1.339942 -0.740245 -0.026930 3.163646 -44.668860 -27.743364 9.707142 46.263302 -55.993186 -19.535588 0.467341 1.819012 -1.131899 -6.935932 -0.222956 0.213219 91.465487 26.176035 40.508655 -58.941331 61.185907 -25.544262 0.197559 -1.295016 -1.394998 7.384389 -0.223967 0.218200 
4.756367 15.558990 -2.397638 -4.866138 -24.549143 3.883723 -6.049308 22.208956 -25.264321 -8.426546 12.023305 22.945927 2.653548 3.145695 -12.277475 -0.017106 -0.516175 -1.004882 -1.397346 -8.785982 5.715214 11.129211 -10.174251 16.964885 -2.155227 -3.005738 -9.095200 0.373376 0.850729 -1.905283 -0.141704 0.907865 -0.855803 -0.267326 0.094139 -7.118476 0.494111 0.742797 -1.868627 -0.739751 -0.019644 2.873862 -43.379279 -28.770129 8.177760 48.881009 -58.237554 -20.075929 0.589188 2.129726 -1.111848 -6.864383 -0.286709 0.277363 93.943678 26.161182 40.832865 -60.138231 62.557297 -24.811634 0.395936 -1.484599 -1.190709 7.440172 -0.299318 0.289268 
4.725811 15.556126 -2.408110 -4.825040 -24.186731 3.911492 -6.314589 22.694560 -26.155849 -9.611638 12.361755 22.439900 3.089544 3.099806 -12.733849 0.035135 -0.642290 -1.185589 -2.805885 -8.621334 6.356693 12.637062 -10.531424 16.916333 -2.583947 -3.727897 -9.508875 0.496809 0.611817 -1.267150 -0.296950 0.857264 -0.801144 -0.254886 -0.167704 -7.969046 0.603903 0.863085 -2.353525 -0.802103 0.037592 2.659569 -41.737329 -29.655892 6.727889 50.717745 -59.834654 -20.051512 0.724149 2.416971 -0.900827 -6.805153 -0.346707 0.335554 95.319304 25.824792 41.079511 -61.681510 63.937528 -23.839179 0.314229 -1.774027 -0.829433 7.494128 -0.364779 0.352382 
4.695186 15.553324 -2.417671 -4.793570 -23.777342 3.938570 -6.431849 22.895254 -26.966680 -11.026008 12.914656 21.825757 3.416023 3.205169 -13.458182 -0.014267 -0.757619 -1.551841 -4.418002 -8.232950 6.338735 13.891088 -11.294039 17.323004 -2.995447 -3.908306 -10.276069 0.529369 0.263419 -0.278608 -0.521703 0.809676 -1.019489 -0.531141 -0.178406 -9.120643 0.581783 0.628137 -3.079831 -0.892174 0.019778 2.242388 -40.902428 -30.035511 6.013057 52.684785 -61.407168 -20.088849 0.775697 2.895458 -0.628976 -6.781214 -0.376550 0.360042 96.630005 25.896563 41.419257 -63.481401 65.226729 -22.819484 0.266276 -1.855893 -0.411609 7.504900 -0.398173 0.383214 
4.664560 15.550523 -2.427211 -4.762252 -23.367880 3.965985 -6.436295 23.062009 -27.026494 -12.597133 13.095566 21.308996 3.688784 3.413176 -14.439606 -0.059086 -0.889397 -1.927732 -5.765185 -8.221123 6.632794 15.408533 -11.802281 18.021265 -3.476696 -3.982181 -11.118354 0.561379 0.011025 0.424084 -0.375365 0.817728 -1.108387 -0.593671 -0.124083 -10.203984 0.523232 0.462875 -4.015275 -1.089118 0.100782 1.641020 -40.277247 -30.313801 5.543693 55.352773 -63.227018 -20.008311 0.993976 3.479237 -0.221211 -6.736617 -0.420255 0.397226 97.984833 26.138478 42.217564 -64.660912 66.225727 -21.421384 0.288020 -2.248502 -0.122798 7.529748 -0.448454 0.428319 
4.634356 15.547652 -2.435450 -4.730384 -22.914324 3.990155 -6.671675 21.679610 -27.265524 -13.535910 13.203463 21.034489 3.725998 3.805086 -14.875163 -0.023091 -0.792863 -1.674716 -6.059682 -7.802473 5.985433 16.174458 -12.223132 18.534249 -3.522847 -4.209565 -11.535597 0.517758 0.055825 0.263962 -0.417411 0.873927 -0.909353 -0.761465 0.085146 -10.818890 0.891183 0.442449 -3.767913 -1.044985 0.268064 1.721078 -40.385394 -30.499698 6.144848 55.793960 -63.728964 -19.223218 1.091663 3.644382 -0.497624 -6.751664 -0.407332 0.375871 97.799197 26.538363 42.792677 -64.707146 66.586432 -19.284555 0.324910 -2.293168 0.261402 7.535672 -0.427225 0.403656 
4.604167 15.544780 -2.443646 -4.698308 -22.460527 4.014283 -7.044037 20.377570 -27.409298 -14.043864 13.539342 21.090548 3.496404 4.150193 -14.829811 0.050297 -0.558799 -1.067932 -5.993835 -7.263160 5.293688 16.654289 -12.408414 18.427342 -3.713967 -4.442445 -11.721545 0.439517 -0.045037 0.509376 -0.502809 0.865805 -0.842426 -0.853401 0.106411 -11.174737 1.264573 0.213164 -3.359880 -0.836905 0.281316 1.757133 -41.022244 -30.232590 6.961829 55.610592 -63.980409 -18.128146 1.196158 3.833959 -0.936957 -6.770733 -0.382369 0.347476 97.368762 27.010068 43.050061 -64.554690 66.681543 -17.897268 0.296784 -2.149205 0.694264 7.526860 -0.394514 0.370362 
